<svg width="16" height="12" viewBox="0 0 16 12" fill="none" xmlns="http://www.w3.org/2000/svg">
<path d="M7.99941 8.13323C9.09442 8.13323 9.9821 7.16729 9.9821 5.97574C9.9821 4.78418 9.09442 3.81824 7.99941 3.81824C6.9044 3.81824 6.01672 4.78418 6.01672 5.97574C6.01672 7.16729 6.9044 8.13323 7.99941 8.13323Z" fill="#393939"/>
<path fill-rule="evenodd" clip-rule="evenodd" d="M15.4891 5.78238C13.9308 2.39079 11.1312 0.367065 7.99855 0.367065C4.8659 0.367065 2.06634 2.39079 0.507945 5.78238C0.45243 5.9032 0.45243 6.0456 0.507945 6.16642C2.06634 9.56232 4.8659 11.5861 7.99855 11.5861C11.1312 11.5861 13.9308 9.56233 15.4891 6.17074C15.5447 6.04992 15.5447 5.9032 15.4891 5.78238ZM14.589 6.18369C13.1456 9.02727 10.6791 10.7231 7.99855 10.7231C5.31795 10.7231 2.85149 9.02727 1.40809 6.18369L1.30102 5.97656L1.40809 5.76944C2.85149 2.93017 5.31399 1.23006 7.99855 1.23006C10.6831 1.23006 13.1416 2.92585 14.589 5.76944L14.6961 5.97656L14.589 6.18369Z" fill="#393939"/>
</svg>
