<svg width="24" height="24" viewBox="0 0 24 24" fill="none" xmlns="http://www.w3.org/2000/svg">
<path d="M10 21H14C14 21.5304 13.7893 22.0391 13.4142 22.4142C13.0391 22.7893 12.5304 23 12 23C11.4696 23 10.9609 22.7893 10.5858 22.4142C10.2107 22.0391 10 21.5304 10 21ZM3.076 18.383C3.0003 18.2002 2.98051 17.9991 3.01913 17.8051C3.05776 17.6111 3.15307 17.4328 3.293 17.293L5 15.586V10C5.00322 8.3185 5.61109 6.69424 6.71264 5.42379C7.81419 4.15334 9.33592 3.32145 11 3.08V2C11 1.73478 11.1054 1.48043 11.2929 1.29289C11.4804 1.10536 11.7348 1 12 1C12.2652 1 12.5196 1.10536 12.7071 1.29289C12.8946 1.48043 13 1.73478 13 2V3.08C14.6641 3.32145 16.1858 4.15334 17.2874 5.42379C18.3889 6.69424 18.9968 8.3185 19 10V15.586L20.707 17.293C20.8468 17.4329 20.942 17.611 20.9806 17.805C21.0192 17.9989 20.9993 18.2 20.9237 18.3827C20.848 18.5654 20.7199 18.7215 20.5555 18.8314C20.3911 18.9413 20.1978 19 20 19H4C3.80224 19 3.6089 18.9415 3.44443 18.8316C3.27996 18.7218 3.15175 18.5657 3.076 18.383ZM6.414 17H17.586L17.293 16.707C17.1055 16.5195 17.0001 16.2652 17 16V10C17 8.67392 16.4732 7.40215 15.5355 6.46447C14.5979 5.52678 13.3261 5 12 5C10.6739 5 9.40215 5.52678 8.46447 6.46447C7.52679 7.40215 7 8.67392 7 10V16C6.99994 16.2652 6.89455 16.5195 6.707 16.707L6.414 17Z" fill="white"/>
</svg>
